<?xml version="1.0" encoding="UTF-8" standalone="no"?>
<!-- Generated by IcoMoon.io -->

<svg
   xmlns:dc="http://purl.org/dc/elements/1.1/"
   xmlns:cc="http://creativecommons.org/ns#"
   xmlns:rdf="http://www.w3.org/1999/02/22-rdf-syntax-ns#"
   xmlns:svg="http://www.w3.org/2000/svg"
   xmlns="http://www.w3.org/2000/svg"
   xmlns:sodipodi="http://sodipodi.sourceforge.net/DTD/sodipodi-0.dtd"
   xmlns:inkscape="http://www.inkscape.org/namespaces/inkscape"
   version="1.1"
   width="24"
   height="24"
   viewBox="0 0 24 24"
   id="svg2"
   inkscape:version="0.48.4 r9939"
   sodipodi:docname="envelop-white.svg">
  <metadata
     id="metadata10">
    <rdf:RDF>
      <cc:Work
         rdf:about="">
        <dc:format>image/svg+xml</dc:format>
        <dc:type
           rdf:resource="http://purl.org/dc/dcmitype/StillImage" />
      </cc:Work>
    </rdf:RDF>
  </metadata>
  <defs
     id="defs8" />
  <sodipodi:namedview
     pagecolor="#ffffff"
     bordercolor="#666666"
     borderopacity="1"
     objecttolerance="10"
     gridtolerance="10"
     guidetolerance="10"
     inkscape:pageopacity="0"
     inkscape:pageshadow="2"
     inkscape:window-width="1600"
     inkscape:window-height="851"
     id="namedview6"
     showgrid="false"
     inkscape:zoom="14.75"
     inkscape:cx="-1.9661017"
     inkscape:cy="8"
     inkscape:window-x="0"
     inkscape:window-y="0"
     inkscape:window-maximized="1"
     inkscape:current-layer="svg2" />
  <path
     d="M 21.75,2.25 H 2.25 C 1.0125,2.25 0,3.2625 0,4.5 v 15 c 0,1.2375 1.0125,2.25 2.25,2.25 h 19.5 C 22.9875,21.75 24,20.7375 24,19.5 V 4.5 C 24,3.2625 22.9875,2.25 21.75,2.25 z M 9.345,12.15 3,17.0925 V 5.3355 L 9.345,12.15 z M 4.134,5.25 H 19.866 L 12,11.157 4.134,5.25 z M 9.5925,12.4155 12,15 14.4075,12.4155 19.3425,18.75 H 4.6575 l 4.935,-6.3345 z M 14.655,12.15 21,5.3355 v 11.757 L 14.655,12.15 z"
     id="path4"
     inkscape:connector-curvature="0"
     style="fill:#f9f9f9" />
</svg>
